<?xml version="1.0" standalone="no"?>
<!DOCTYPE svg PUBLIC "-//W3C//DTD SVG 20010904//EN"
 "http://www.w3.org/TR/2001/REC-SVG-20010904/DTD/svg10.dtd">
<svg version="1.0" xmlns="http://www.w3.org/2000/svg"
 width="512.000000pt" height="512.000000pt" viewBox="0 0 512.000000 512.000000"
 preserveAspectRatio="xMidYMid meet">

<g transform="translate(0.000000,512.000000) scale(0.100000,-0.100000)"
fill="#000000" stroke="none">
<path d="M3860 4702 c-14 -9 -269 -262 -567 -561 -409 -409 -543 -549 -543
-567 0 -34 37 -64 79 -64 33 0 66 31 576 540 345 344 548 540 560 540 26 0
625 -598 625 -624 0 -10 -36 -55 -80 -100 l-79 -81 -189 188 c-122 121 -195
187 -209 187 -35 0 -73 -38 -73 -73 0 -28 23 -55 185 -217 l185 -185 -73 -73
-73 -73 -80 80 c-90 92 -122 106 -167 71 -19 -15 -27 -30 -27 -53 0 -27 14
-46 85 -117 l85 -85 -72 -72 -72 -73 -87 85 c-96 94 -126 105 -167 62 -41 -43
-30 -71 63 -166 l84 -87 -72 -72 -72 -72 -185 185 c-203 201 -216 210 -265
160 -50 -49 -42 -63 160 -264 l185 -185 -72 -73 -72 -73 -87 85 c-94 92 -116
101 -163 64 -46 -36 -36 -63 61 -161 l88 -88 -65 -65 -65 -65 -322 322 -322
322 70 73 c77 81 87 113 46 151 -40 37 -65 29 -146 -49 l-74 -71 -651 649
c-611 610 -655 651 -716 678 -96 42 -190 53 -276 32 -98 -24 -170 -64 -234
-127 -63 -64 -103 -136 -127 -234 -21 -86 -10 -180 32 -276 27 -61 68 -105
678 -717 l650 -651 -690 -690 c-379 -380 -697 -701 -706 -716 -12 -18 -17 -47
-17 -101 0 -68 3 -81 29 -118 51 -73 603 -615 644 -632 53 -22 132 -20 173 6
19 11 345 332 725 711 l690 691 58 -57 c44 -43 63 -56 87 -56 39 0 64 27 64
71 0 32 -52 86 -807 841 l-808 808 80 80 c44 44 84 80 90 80 6 0 35 -25 65
-55 49 -49 59 -55 96 -55 49 0 62 13 66 63 2 33 -4 43 -55 95 -31 32 -57 62
-57 68 0 5 36 45 80 89 l80 80 1228 -1228 1227 -1227 -85 -85 -85 -85 -1060
1060 c-1012 1012 -1062 1060 -1096 1060 -45 0 -69 -25 -69 -71 0 -32 68 -102
1060 -1094 l1060 -1060 -85 -85 -85 -85 -323 322 c-204 204 -332 324 -349 328
-42 11 -78 -19 -78 -64 0 -34 18 -54 358 -393 323 -322 396 -388 432 -388 7 0
26 -6 43 -14 49 -22 214 -86 221 -86 4 0 32 -11 62 -25 30 -14 58 -25 62 -25
7 0 133 -48 197 -76 81 -34 176 -64 205 -64 45 0 100 55 100 102 0 32 -35 141
-65 201 -8 17 -15 35 -15 41 0 6 -13 43 -29 81 -29 70 -48 119 -116 295 -20
52 -43 110 -51 128 -9 18 -17 41 -19 52 -2 10 -9 29 -15 42 -7 13 -240 251
-518 530 l-505 506 691 691 c380 380 700 706 711 725 26 42 28 123 4 174 -17
38 -527 561 -616 633 -48 38 -50 39 -130 38 -59 0 -89 -5 -107 -17z m-2818
-205 c36 -18 92 -65 173 -147 l120 -120 -223 -222 -222 -223 -120 120 c-135
134 -169 188 -177 283 -8 86 26 181 86 245 92 96 244 122 363 64z m336 -754
l-223 -223 -82 82 -83 83 222 222 223 223 82 -82 83 -83 -222 -222z m1120
-1890 l-62 -62 -88 84 c-99 96 -129 107 -167 59 -37 -47 -28 -69 64 -163 l85
-87 -73 -72 -73 -72 -185 185 c-201 202 -215 210 -264 160 -50 -49 -41 -62
160 -265 l185 -185 -72 -72 -72 -72 -87 84 c-95 93 -123 104 -166 63 -43 -41
-32 -71 62 -167 l85 -87 -73 -72 -72 -72 -85 85 c-71 71 -90 85 -117 85 -23 0
-38 -8 -53 -27 -35 -45 -21 -77 71 -167 l80 -80 -73 -73 -73 -73 -185 185
c-162 162 -189 185 -217 185 -40 0 -77 -42 -69 -80 3 -15 75 -95 188 -208
l183 -182 -81 -80 c-45 -44 -90 -80 -100 -80 -23 0 -610 586 -619 619 -6 21
66 97 686 717 l694 694 322 -322 323 -323 -62 -62z m1746 -615 c23 -51 156
-391 156 -400 0 -5 9 -27 20 -51 25 -54 51 -129 47 -134 -5 -4 -80 22 -134 47
-24 11 -47 20 -51 20 -5 0 -69 24 -143 53 -74 30 -167 66 -206 81 -40 15 -76
32 -79 38 -6 10 353 378 368 378 4 0 14 -15 22 -32z"/>
</g>
</svg>
