<?xml version="1.0" standalone="no"?>
<!DOCTYPE svg PUBLIC "-//W3C//DTD SVG 20010904//EN"
 "http://www.w3.org/TR/2001/REC-SVG-20010904/DTD/svg10.dtd">
<svg version="1.0" xmlns="http://www.w3.org/2000/svg"
 width="512.000000pt" height="512.000000pt" viewBox="0 0 512.000000 512.000000"
 preserveAspectRatio="xMidYMid meet">

<g transform="translate(0.000000,512.000000) scale(0.100000,-0.100000)"
fill="#000000" stroke="none">
<path d="M1593 4630 c-37 -9 -85 -46 -130 -102 -23 -28 -33 -54 -38 -91 -3
-29 -5 -894 -3 -1922 3 -1798 4 -1872 21 -1899 29 -44 109 -116 137 -124 33
-9 1927 -9 1961 0 34 10 137 113 147 147 9 34 9 3808 0 3841 -8 28 -80 108
-124 137 -27 17 -74 18 -984 20 -525 0 -969 -2 -987 -7z m510 -127 c3 -5 8
-26 11 -48 12 -75 56 -203 72 -209 9 -3 176 -6 373 -6 271 0 361 3 373 13 15
11 62 147 74 213 3 16 9 33 13 37 5 5 107 7 227 5 208 -3 221 -4 250 -25 17
-12 40 -35 50 -50 18 -27 19 -83 19 -1873 0 -1790 -1 -1846 -19 -1873 -10 -15
-33 -38 -50 -50 l-31 -22 -905 0 -905 0 -31 22 c-17 12 -40 35 -50 50 -18 27
-19 85 -22 1828 -2 990 0 1824 3 1853 6 45 13 60 45 92 21 21 51 40 67 43 51
7 432 7 436 0z m750 -55 c-8 -34 -17 -66 -19 -70 -3 -4 -126 -8 -273 -8 -203
0 -271 3 -278 13 -6 6 -13 28 -16 47 -4 19 -9 45 -13 58 l-6 22 309 0 310 0
-14 -62z"/>
<path d="M2114 2952 c-12 -8 -93 -108 -211 -259 -58 -73 -83 -114 -83 -133 0
-26 54 -101 224 -312 72 -88 72 -88 116 -88 46 0 60 15 60 63 0 39 0 39 -198
284 l-44 53 44 53 c198 245 198 245 198 284 0 22 -5 44 -12 51 -13 13 -77 16
-94 4z"/>
<path d="M2708 2943 c-8 -10 -25 -36 -38 -58 -12 -22 -33 -56 -45 -75 -51 -82
-145 -241 -145 -246 0 -3 -11 -20 -25 -38 -14 -18 -25 -36 -25 -39 0 -3 -31
-57 -70 -120 -73 -119 -85 -161 -54 -192 11 -11 30 -15 58 -13 43 3 47 8 123
135 13 21 52 87 88 146 36 59 65 110 65 113 0 3 11 20 25 38 14 18 25 36 25
39 0 3 32 57 70 120 73 119 85 161 54 191 -21 22 -87 21 -106 -1z"/>
<path d="M2912 2948 c-7 -7 -12 -29 -12 -51 0 -39 0 -39 198 -284 l44 -53 -44
-53 c-198 -245 -198 -245 -198 -284 0 -48 14 -63 60 -63 44 0 44 0 116 88 170
211 224 286 224 312 0 19 -25 60 -82 133 -119 151 -200 251 -212 259 -17 12
-81 9 -94 -4z"/>
<path d="M1708 869 c-21 -12 -25 -88 -6 -107 9 -9 87 -12 290 -12 264 0 278 1
288 19 15 29 12 77 -6 95 -13 14 -53 16 -282 16 -163 0 -274 -5 -284 -11z"/>
<path d="M2376 864 c-18 -18 -21 -66 -6 -95 9 -16 22 -19 90 -19 88 0 100 8
100 69 0 48 -22 61 -100 61 -49 0 -73 -4 -84 -16z"/>
</g>
</svg>
