<?xml version="1.0"?>
<svg xmlns="http://www.w3.org/2000/svg" xmlns:xlink="http://www.w3.org/1999/xlink" xmlns:svgjs="http://svgjs.com/svgjs" version="1.1" width="512" height="512" x="0" y="0" viewBox="0 0 512 512" style="enable-background:new 0 0 512 512" xml:space="preserve" class=""><g transform="matrix(0.8,0,0,0.8,51.19999999999999,51.19999999999999)"><link type="text/css" rel="stylesheet" id="dark-mode-general-link"/><link type="text/css" rel="stylesheet" id="dark-mode-custom-link"/><style lang="en" type="text/css" id="dark-mode-custom-style"/><path xmlns="http://www.w3.org/2000/svg" d="m497.851562 228.042969-27.09375-5.859375c-2.355468-7.734375-5.402343-15.238282-9.105468-22.425782l15.097656-22.582031c4.652344-6.988281 3.742188-16.289062-2.1875-22.234375l-15.136719-15.132812c-5.9375-5.902344-15.210937-6.816406-22.1875-2.183594l-23.191406 15.019531c-7.148437-3.796875-14.628906-6.9375-22.339844-9.386719l-5.34375-26.71875c-1.664062-8.214843-8.878906-14.125-17.261719-14.140624h-21.402343c-8.382813.023437-15.59375 5.933593-17.253907 14.148437l-5.863281 27.09375c-7.730469 2.359375-15.238281 5.40625-22.425781 9.105469l-22.597656-15.101563c-6.976563-4.636719-16.25-3.71875-22.183594 2.191407l-15.128906 15.121093c-5.933594 5.945313-6.855469 15.246094-2.203125 22.238281l15.019531 23.203126c-3.796875 7.144531-6.9375 14.621093-9.386719 22.332031l-26.726562 5.339843c-8.207031 1.660157-14.117188 8.855469-14.148438 17.230469v21.398438c.019531 8.382812 5.933594 15.59375 14.148438 17.257812l27.09375 5.859375c2.355469 7.734375 5.402343 15.238282 9.105469 22.425782l-15.097657 22.582031c-4.65625 6.988281-3.742187 16.289062 2.183594 22.234375l15.140625 15.132812c5.9375 5.902344 15.207031 6.8125 22.183594 2.183594l23.195312-15.019531c7.148438 3.796875 14.625 6.9375 22.339844 9.386719l5.34375 26.71875c1.664062 8.214843 8.878906 14.125 17.261719 14.140624h21.402343c8.378907-.023437 15.59375-5.933593 17.253907-14.148437l5.863281-27.09375c7.730469-2.359375 15.238281-5.40625 22.425781-9.105469l22.59375 15.101563c6.976563 4.636719 16.253907 3.71875 22.1875-2.191407l15.128907-15.121093c5.933593-5.945313 6.851562-15.246094 2.203124-22.238281l-15.019531-23.203126c3.730469-6.945312 6.746094-14.253906 8.996094-21.808593l-8.175781-2.433594 8.53125 1.910156 26.726562-5.339843c8.21875-1.644532 14.148438-8.847657 14.183594-17.230469v-21.398438c-.019531-8.382812-5.933594-15.59375-14.148438-17.257812zm-3.34375 39.179687-26.71875 5.339844c-6.417968 1.328125-11.570312 6.097656-13.390624 12.390625-1.921876 6.445313-4.496094 12.675781-7.679688 18.601563-3.121094 5.726562-2.824219 12.710937.769531 18.152343l15.019531 23.285157-15.796874 15.199218-22.605469-15.113281c-5.453125-3.589844-12.445313-3.878906-18.175781-.75-5.917969 3.1875-12.148438 5.761719-18.59375 7.679687-6.292969 1.8125-11.066407 6.964844-12.390626 13.382813l-5.84375 27.144531-21.921874-.4375-5.34375-26.71875c-1.320313-6.410156-6.089844-11.5625-12.382813-13.371094-6.449219-1.921874-12.6875-4.492187-18.617187-7.679687-2.625-1.40625-5.554688-2.144531-8.535157-2.140625-3.4375-.007812-6.800781 1.003906-9.667969 2.910156l-23.21875 15.007813-15.199218-15.785157 15.097656-22.613281c3.597656-5.449219 3.890625-12.4375.757812-18.167969-3.179687-5.925781-5.753906-12.160156-7.679687-18.601562-1.816406-6.296875-6.972656-11.066406-13.386719-12.390625l-27.136718-5.847656.425781-21.921875 26.71875-5.339844c6.414062-1.328125 11.570312-6.097656 13.386719-12.390625 1.925781-6.445313 4.5-12.675781 7.679687-18.601563 3.125-5.726562 2.828125-12.710937-.765625-18.152343l-15.019531-23.285157 15.8125-15.199218 22.585937 15.113281c5.457032 3.585937 12.445313 3.875 18.179688.75 5.917968-3.1875 12.148437-5.761719 18.59375-7.679687 6.292968-1.8125 11.066406-6.964844 12.390625-13.382813l5.84375-27.144531 21.921875.4375 5.34375 26.71875c1.320312 6.410156 6.089844 11.5625 12.378906 13.371094 6.453125 1.921874 12.691406 4.492187 18.621094 7.679687 5.730468 3.125 12.71875 2.828125 18.167968-.769531l23.253907-15.007813 15.195312 15.800781-15.09375 22.597657c-3.601562 5.449219-3.890625 12.4375-.757812 18.167969 3.179687 5.925781 5.753906 12.160156 7.679687 18.601562 1.816406 6.296875 6.972656 11.066406 13.386719 12.390625l27.136719 5.847656zm0 0" fill="#000000" data-original="#000000" style="" class=""/><path xmlns="http://www.w3.org/2000/svg" d="m358.398438 187.734375c-37.699219 0-68.265626 30.5625-68.265626 68.265625s30.566407 68.265625 68.265626 68.265625c37.703124 0 68.269531-30.5625 68.269531-68.265625-.042969-37.683594-30.582031-68.222656-68.269531-68.265625zm0 119.464844c-28.277344 0-51.199219-22.921875-51.199219-51.199219s22.921875-51.199219 51.199219-51.199219c28.277343 0 51.203124 22.921875 51.203124 51.199219-.03125 28.265625-22.9375 51.171875-51.203124 51.199219zm0 0" fill="#000000" data-original="#000000" style="" class=""/><path xmlns="http://www.w3.org/2000/svg" d="m366.933594 256c0 4.710938-3.820313 8.535156-8.535156 8.535156-4.710938 0-8.53125-3.824218-8.53125-8.535156s3.820312-8.535156 8.53125-8.535156c4.714843 0 8.535156 3.824218 8.535156 8.535156zm0 0" fill="#000000" data-original="#000000" style="" class=""/><path xmlns="http://www.w3.org/2000/svg" d="m51.199219 512h221.867187c28.265625-.027344 51.171875-22.933594 51.199219-51.199219v-51.199219c0-4.714843-3.820313-8.535156-8.53125-8.535156-4.714844 0-8.535156 3.820313-8.535156 8.535156v17.066407h-290.132813v-341.335938h290.132813v17.066407c0 4.714843 3.820312 8.535156 8.535156 8.535156 4.710937 0 8.53125-3.820313 8.53125-8.535156v-51.199219c-.027344-28.265625-22.933594-51.1718752-51.199219-51.199219h-221.867187c-28.265625.0273438-51.1718752 22.933594-51.199219 51.199219v409.601562c.0273438 28.265625 22.933594 51.171875 51.199219 51.199219zm256-68.265625v17.066406c0 18.851563-15.28125 34.132813-34.132813 34.132813h-221.867187c-18.851563 0-34.132813-15.28125-34.132813-34.132813v-17.066406zm-256-426.667969h102.402343v17.066406c0 4.714844 3.820313 8.535157 8.53125 8.535157 4.714844 0 8.535157-3.820313 8.535157-8.535157v-17.066406h102.398437c18.851563 0 34.132813 15.28125 34.132813 34.132813v17.066406h-290.132813v-17.066406c0-18.851563 15.28125-34.132813 34.132813-34.132813zm0 0" fill="#000000" data-original="#000000" style="" class=""/><path xmlns="http://www.w3.org/2000/svg" d="m136.535156 477.867188h51.199219c4.710937 0 8.53125-3.820313 8.53125-8.535157 0-4.710937-3.820313-8.53125-8.53125-8.53125h-51.199219c-4.714844 0-8.535156 3.820313-8.535156 8.53125 0 4.714844 3.820312 8.535157 8.535156 8.535157zm0 0" fill="#000000" data-original="#000000" style="" class=""/><path xmlns="http://www.w3.org/2000/svg" d="m100.34375 116.480469c2.121094-2.296875 2.816406-5.566407 1.816406-8.527344-1.003906-2.960937-3.542968-5.136719-6.625-5.671875-3.078125-.535156-6.203125.65625-8.144531 3.105469l-51.199219 59.734375c-2.121094 2.292968-2.820312 5.566406-1.816406 8.527344 1.003906 2.960937 3.542969 5.132812 6.621094 5.667968s6.207031-.65625 8.148437-3.101562zm0 0" fill="#000000" data-original="#000000" style="" class=""/><path xmlns="http://www.w3.org/2000/svg" d="m51.199219 264.535156c2.675781.011719 5.203125-1.230468 6.828125-3.355468l110.933594-145.066407c2.671874-3.746093 1.890624-8.9375-1.765626-11.734375-3.65625-2.792968-8.871093-2.1875-11.785156 1.375l-110.933594 145.066406c-1.964843 2.570313-2.304687 6.03125-.882812 8.9375 1.425781 2.90625 4.371094 4.753907 7.605469 4.777344zm0 0" fill="#000000" data-original="#000000" style="" class=""/></g></svg>
