<?xml version="1.0" standalone="no"?>
<!DOCTYPE svg PUBLIC "-//W3C//DTD SVG 20010904//EN"
 "http://www.w3.org/TR/2001/REC-SVG-20010904/DTD/svg10.dtd">
<svg version="1.0" xmlns="http://www.w3.org/2000/svg"
 width="748.000000pt" height="648.000000pt" viewBox="0 0 748.000000 648.000000"
 preserveAspectRatio="xMidYMid meet">

<g transform="translate(0.000000,648.000000) scale(0.100000,-0.100000)"
fill="#000000" stroke="none">
<path d="M769 5889 c-191 -28 -347 -160 -421 -355 l-23 -59 -3 -1967 -2 -1968
-141 0 c-78 0 -149 -5 -160 -10 -17 -10 -19 -22 -19 -118 0 -367 275 -702 660
-804 l85 -23 2985 0 2985 0 85 23 c268 71 473 244 590 496 48 103 69 188 77
302 5 84 4 93 -16 113 -19 19 -31 21 -166 21 l-145 0 0 1943 c0 2139 4 2006
-62 2130 -65 121 -176 215 -307 260 l-66 22 -2940 1 c-1617 1 -2965 -2 -2996
-7z m5906 -150 c147 -27 258 -127 299 -268 14 -49 16 -252 16 -1993 l0 -1938
-200 0 -200 0 0 1723 c0 1888 4 1761 -57 1882 -53 103 -188 208 -304 234 -29
7 -881 11 -2500 11 -2694 0 -2492 4 -2613 -57 -62 -32 -153 -122 -188 -189
-61 -114 -58 -6 -58 -1886 l0 -1718 -200 0 -200 0 2 1958 3 1957 32 67 c54
114 155 194 275 217 67 14 5821 13 5893 0z m-440 -520 c67 -25 141 -94 175
-164 l25 -50 3 -1732 2 -1733 -2710 0 -2710 0 2 1733 3 1732 24 45 c36 67 67
105 113 135 86 57 -88 54 2565 54 l2452 1 56 -21z m1085 -3842 c0 -41 -45
-178 -80 -245 -96 -185 -266 -322 -470 -379 -62 -17 -201 -18 -3040 -18
l-2975 0 -75 23 c-172 54 -323 164 -413 300 -65 97 -92 168 -122 315 -3 16
173 17 3586 17 2993 0 3589 -2 3589 -13z"/>
<path d="M3482 4824 c-56 -28 -91 -63 -125 -128 -18 -35 -22 -61 -25 -178 l-4
-137 -33 -11 c-19 -6 -77 -38 -129 -71 l-96 -60 -112 63 c-100 56 -118 63
-178 66 -84 5 -153 -22 -207 -82 -21 -22 -74 -104 -118 -181 -78 -137 -80
-142 -83 -218 -4 -68 -1 -84 22 -132 32 -65 57 -87 179 -158 l92 -55 -1 -152
-1 -152 -99 -59 c-120 -73 -137 -88 -170 -156 -23 -46 -26 -62 -22 -130 3 -76
5 -81 83 -218 93 -162 121 -198 184 -229 106 -54 178 -44 331 45 l103 59 66
-44 c36 -24 94 -57 127 -74 l62 -31 4 -129 c3 -120 6 -134 33 -188 36 -70 94
-117 171 -140 43 -12 91 -15 222 -12 159 3 170 4 224 31 62 30 113 85 134 145
8 23 13 86 14 164 l0 126 64 30 c36 17 93 49 127 73 35 23 68 42 74 42 6 0 54
-25 106 -56 141 -85 230 -93 334 -32 55 32 74 55 142 175 109 190 117 208 117
280 0 124 -50 192 -205 279 l-94 53 0 153 0 153 95 56 c140 81 188 137 204
241 10 64 -15 133 -105 290 -110 193 -163 235 -300 235 -59 0 -82 -10 -264
-110 l-40 -22 -84 56 c-46 30 -103 63 -126 72 l-43 16 -4 136 c-3 129 -5 140
-33 190 -32 59 -87 108 -143 128 -25 9 -97 13 -228 14 -185 0 -192 -1 -242
-26z m444 -140 c47 -31 54 -61 54 -219 0 -81 5 -155 10 -165 6 -11 61 -44 123
-73 61 -30 135 -72 162 -94 59 -47 87 -63 110 -63 9 0 71 32 138 71 201 118
222 112 340 -94 81 -144 92 -184 63 -236 -8 -14 -67 -56 -137 -97 -68 -39
-132 -83 -142 -96 -16 -21 -16 -32 -5 -126 9 -82 9 -124 -1 -203 -10 -86 -10
-104 2 -122 8 -12 61 -49 118 -81 145 -83 166 -100 180 -146 11 -37 10 -44
-24 -112 -63 -125 -127 -227 -153 -244 -51 -34 -90 -24 -236 60 -107 61 -142
76 -160 70 -12 -4 -52 -29 -88 -56 -36 -28 -116 -74 -177 -104 -85 -41 -114
-60 -118 -77 -2 -12 -6 -90 -7 -173 -3 -136 -5 -154 -23 -174 -37 -42 -75 -50
-225 -50 -235 0 -250 15 -250 246 0 173 -2 179 -80 208 -69 27 -168 83 -232
134 -38 29 -68 45 -86 45 -15 0 -83 -33 -152 -72 -192 -110 -216 -103 -329 95
-40 71 -75 143 -78 160 -10 62 18 95 139 165 61 35 124 76 141 90 l30 26 -12
110 c-10 85 -10 133 -1 211 8 69 9 106 2 119 -6 10 -68 52 -138 93 -200 118
-206 137 -94 333 121 212 141 218 343 102 72 -41 140 -75 152 -75 11 0 54 25
95 57 41 31 121 78 177 105 56 26 107 57 113 67 5 11 10 83 10 161 0 157 11
199 59 225 41 22 353 21 387 -1z"/>
<path d="M3606 3889 c-74 -18 -169 -73 -231 -134 -141 -140 -189 -344 -125
-529 80 -233 335 -382 571 -333 105 21 180 59 252 127 76 71 126 152 149 239
47 181 -1 360 -132 491 -72 73 -138 112 -225 135 -64 16 -197 18 -259 4z m276
-171 c73 -34 142 -103 176 -176 23 -49 27 -70 27 -147 0 -82 -3 -97 -33 -157
-132 -268 -511 -271 -642 -5 -78 160 -30 353 114 452 73 50 126 65 221 62 62
-2 93 -8 137 -29z"/>
<path d="M1223 1290 c-59 -12 -94 -33 -136 -79 -101 -112 -64 -289 77 -364 40
-21 52 -22 351 -22 l311 0 49 26 c172 88 172 330 0 418 -49 26 -50 26 -330 28
-154 1 -299 -2 -322 -7z m597 -160 c30 -16 42 -66 26 -105 -22 -52 -52 -57
-354 -53 l-264 3 -24 28 c-29 34 -31 76 -3 111 l20 26 290 0 c170 0 298 -4
309 -10z"/>
</g>
</svg>
