<svg width="1058" height="515" viewBox="0 0 1058 515" fill="none" xmlns="http://www.w3.org/2000/svg">
<path d="M424.567 192.635L430.119 190.5L436.526 181.103V174.696L442.933 170.852L451.476 164.872L460.446 168.716L473.687 160.601L482.656 159.319L492.907 160.601L501.877 156.756L505.721 164.872L501.877 168.716L511.701 174.696H517.254L523.661 181.103L532.203 184.093L536.475 181.103V174.696H545.872L556.977 181.103H568.082H578.333L583.886 192.635L586.449 199.042L591.147 208.012L594.564 216.555V223.389L600.544 228.514L603.961 238.765L610.795 243.464L616.775 250.725L619.338 257.559L624.036 260.549L631.725 262.257L646.247 257.559V268.237L639.84 278.915L633.86 288.312L625.745 296.001L616.775 306.252L609.087 314.794L603.961 324.191L606.524 335.724L610.795 341.276V350.673V359.216L606.524 366.477L598.408 368.613L594.564 374.165L589.012 380.572L591.147 391.251L589.012 395.949L583.032 400.22L580.042 404.064V408.336L578.761 413.461L568.509 425.848L559.113 432.255L550.997 436.099L546.726 432.255L541.173 436.099H533.912L530.922 432.255V425.848L527.505 418.16L520.671 410.044V404.064L518.108 391.251L514.264 380.572L508.711 372.03V364.341L511.701 357.08L514.264 348.538V341.276V335.724L511.701 329.317L508.711 319.92L505.721 316.503L501.877 310.523V303.689V293.438V288.312L495.897 283.614H487.782L484.365 278.915L478.812 275.926L471.551 278.915L462.581 281.478H451.476L440.371 283.614L433.109 281.478L422.431 272.936L419.441 268.237L415.597 262.257L412.18 257.559L410.044 254.569V249.016L407.054 244.745L410.044 239.62V230.65V226.379V221.253V215.273L415.597 208.012L419.441 199.042L424.567 192.635Z" fill="#E6EAFE"/>
<path d="M638.131 353.663L630.016 362.633L621.901 367.331V378.437L618.056 386.552V395.095L621.901 399.793H630.016L634.714 395.095V386.552L640.267 372.884L642.83 362.633V353.663L640.267 349.392L638.131 353.663Z" fill="#E6EAFE"/>
<path d="M940.112 468.134L943.102 460.873H949.936L953.353 463.435L949.936 468.134L943.102 470.697L940.112 468.134Z" fill="#E6EAFE"/>
<path d="M898.68 427.129L888.002 431.828H873.907L867.927 435.245L861.52 438.662L858.53 435.245V431.828L861.52 422.431V409.617V396.376L865.791 388.688L881.168 379.718H888.002L898.68 369.04L901.67 365.196L907.223 359.216L916.193 356.226L922.173 359.216L925.162 354.945L930.715 351.1L940.966 348.111C950.192 346.744 949.366 350.673 947.8 352.809L943.102 359.216L947.8 362.633L958.906 369.04L966.594 359.216V352.809L971.292 345.975L973.428 352.809L978.981 359.216V370.748L982.825 375.874L989.232 388.688L995.639 396.376V404.064L992.222 418.16L985.815 427.129L978.981 431.828L973.428 442.506L966.594 448.059H960.187L957.197 451.049L952.926 453.611L947.8 451.049H940.966L935.841 448.059V442.506L933.705 438.662L929.434 431.828L925.162 435.245L920.037 427.129L914.484 424.994H909.786L898.68 427.129Z" fill="#E6EAFE"/>
<path d="M1010.59 482.229H1001.19C1001.19 479.154 1004.61 475.253 1006.32 473.687L1017 468.134L1026.39 465.144L1034.51 459.591V465.144L1029.38 468.134L1026.39 473.687H1022.12L1017 478.812L1010.59 482.229Z" fill="#E6EAFE"/>
<path d="M1046.47 462.581H1040.91L1043.05 456.602V451.903L1049.03 449.34L1051.59 440.371L1054.16 446.778L1058 451.903L1051.59 456.602L1046.47 462.581Z" fill="#E6EAFE"/>
<path d="M266.529 505.721L278.061 512.128L269.519 514.264L264.393 512.128H258.413L260.385 505.721H258.413L247.308 501.023L241.755 492.053L234.494 481.802L237.484 477.958V472.405L234.494 466.853L228.514 459.164V451.476L226.379 430.974L223.389 412.607V395.522V379.718L214.846 369.894L204.168 363.06L197.334 353.663L190.5 342.558L184.52 328.463L179.822 326.327V316.503L184.52 312.659L179.822 307.106L184.52 298.136L190.5 288.74L193.49 284.468V278.488L190.5 268.237V265.247L193.49 268.237L197.334 265.247L201.605 260.122H206.304L210.575 254.569H214.846L216.078 259.005L219.972 256.705H226.379L230.223 260.122L237.057 262.258L245.172 260.122L250.298 262.258L260.122 274.217L264.393 278.488H271.227L281.051 281.478L285.323 288.74L288.312 295.147V300.272L293.438 303.262L298.136 307.106H304.116L307.106 309.242L313.086 312.659H322.056L329.317 316.503L337.432 321.201L342.131 323.337V328.463V335.724L335.297 346.829L329.317 353.663V363.06V376.301L322.056 388.688L316.076 390.824L307.106 395.522L300.699 401.502V407.482L298.136 419.014L290.875 430.974L285.323 436.099H280.197H275.499L278.061 440.798V447.632L272.509 451.476H266.529V459.164H258.413V463.863L261.83 466.853L258.413 474.541V477.958V481.802L261.83 486.928V492.053L258.413 497.179L261.83 501.023L260.385 505.721H266.529Z" fill="#E6EAFE"/>
<path d="M992.649 334.015L1002.05 342.985L999.056 345.975L992.649 342.985L985.388 336.578L981.116 334.015H976.418L973.428 338.714L964.885 336.578L960.187 334.015H955.916L960.187 327.608L955.916 323.764L943.956 319.066L937.549 316.93V312.659L933.278 305.398H943.956V308.815L948.654 316.93L952.926 312.659L960.187 308.815L967.875 312.659L981.116 316.93L990.086 323.764L992.649 334.015Z" fill="#E6EAFE"/>
<path d="M871.771 285.75L863.229 292.157L854.686 296.428L856.395 306.252L860.666 313.086L871.771 317.357H880.314V313.086L886.721 304.116L889.284 300.699V294.719L886.721 289.594L889.284 282.333L886.721 278.061H880.314L871.771 285.75Z" fill="#E6EAFE"/>
<path d="M865.364 327.608L874.761 333.161L870.063 335.724L860.666 333.161H853.405H844.862L842.727 327.608H849.988H857.249H865.364Z" fill="#E6EAFE"/>
<path d="M843.154 314.367V320.774C843.154 325.9 837.174 325.188 834.184 324.191L828.204 317.784L822.651 305.825L814.109 293.438L806.848 286.604V280.624L820.943 286.604L825.214 293.438L834.184 299.845V304.116L843.154 314.367Z" fill="#E6EAFE"/>
<path d="M889.284 241.755L891.419 233.213C892.274 229.796 894.908 231.789 896.118 233.213V241.755L900.816 245.6L905.942 253.715L913.203 262.258L916.193 270.373V279.77H910.213L905.942 275.072L900.816 264.393L896.118 253.715L889.284 241.755Z" fill="#E6EAFE"/>
<path d="M826.496 290.021L822.652 278.488L815.39 267.383V254.142L820.516 259.268V264.82L822.652 269.519L826.496 274.217L833.757 278.488L836.747 285.75V296.001H833.757L826.496 290.021Z" fill="#E6EAFE"/>
<path d="M789.763 222.535L785.918 215.273L772.677 217.409L769.687 225.952L762.853 230.65L750.039 242.61L747.904 249.444V262.685C746.879 270.886 741.212 269.519 738.507 267.81L730.819 252.434L721.422 230.65V219.972H715.869H709.889V213.138H703.482L696.221 202.887L691.523 206.731L679.563 202.887H668.885L662.478 197.761L647.528 196.052L640.694 187.937L635.996 184.093L633.006 187.937L638.132 193.917L640.694 202.887H647.528L652.227 208.866L659.915 202.887L664.186 206.731L673.156 213.138V219.972L666.322 230.65L657.352 234.921L647.528 240.474L638.132 245.599L630.87 252.434H621.901L617.629 245.599V237.911L612.931 230.65L604.815 222.535V215.273L592.002 200.324L588.157 190.073L583.459 193.917L578.333 179.822H586.022L588.157 169.57V160.174L580.896 162.736L571.499 160.174H561.248L555.696 149.068V145.224H550.57L545.444 149.068L548.007 155.048L545.444 160.174L539.465 157.184L541.6 152.912L534.339 149.068L531.349 137.963L523.661 133.264L512.555 125.576C507.772 121.134 509.138 126.003 510.42 128.993L515.973 135.4C520.386 138.675 528.53 145.224 525.797 145.224C523.063 145.224 523.234 151.773 523.661 155.048L515.973 145.224L504.013 135.4L498.033 131.129L487.355 135.4H481.375L477.531 142.234L468.561 149.068V157.184L457.883 160.174H448.059L440.371 155.048L443.361 135.4H460.873L464.717 131.129V122.159L457.883 114.471L468.561 112.335L477.531 107.21L489.49 97.8127H494.189L498.033 93.9685V85.8531L502.732 82.0089V87.5616L508.284 85.8531V79.8733L504.013 76.8833L498.033 79.8733L491.626 76.8833V65.778L510.42 51.6827L523.661 41.8587L534.339 35.8789H552.706L563.811 41.8587L580.896 43.9944C586.363 48.4365 583.174 50.9708 580.896 51.6827H574.062L563.811 48.2657L574.062 56.8083H580.896L586.022 51.6827L592.002 48.2657L594.564 43.9944L601.826 48.2657L612.931 43.9944H627.453L642.403 41.8587H651.8L646.674 35.8789L648.81 31.6076H657.78L663.759 35.8789L672.729 31.6076L679.563 27.3363H688.96V22.6379L703.055 19.2209H712.025L716.723 15.8038H724.839L732.954 19.2209H744.914L747.904 22.6379L744.914 27.3363L760.718 29.472H764.135H771.823H779.084H792.752L808.129 35.8789H817.099H824.36L826.496 29.472L840.591 31.6076L857.249 35.8789H871.771H881.595L892.701 41.8587H913.63L917.474 39.296H927.725L943.529 41.8587L957.624 46.13L966.594 49.5471H976.418L982.398 55.954H970.011L963.604 51.6827L957.624 55.954L966.594 60.2253V64.9237L957.624 71.3307H948.655C939.77 73.7226 941.536 77.7376 943.529 79.4461L950.79 82.436L952.926 93.5414V105.074H948.655L937.549 93.5414L930.288 82.436L933.705 68.3408L930.288 64.9237L925.163 68.3408H919.61H913.63V75.602H903.379H888.002L881.595 79.4461L877.324 89.6972L884.158 93.5414H890.992L900.389 97.3856H905.515L913.63 105.074L919.61 111.054V115.752L922.173 124.295L917.474 121.732L913.63 115.752L907.65 107.21H905.515L907.65 115.752V124.295L903.379 134.546H896.545L892.701 137.963L890.992 143.088V146.933L892.701 151.204L900.389 156.757L903.379 162.736L900.389 167.435H892.701L890.992 159.746L881.595 153.34L877.324 146.933C871.857 150.008 869.921 148.214 869.636 146.933L864.51 143.088L857.249 151.204L864.51 156.757H869.636L877.324 159.746L867.5 166.153L877.324 175.123L881.595 181.53L884.158 190.5L881.595 202.032L877.324 210.575L867.5 215.273L857.249 217.409L851.696 222.535L846.144 217.409L840.591 221.253L838.028 228.087L846.144 237.911L851.696 247.308V257.986L846.144 262.685L842.299 267.81H838.028V262.685L830.767 257.986L822.224 252.434H819.234V257.986L814.963 252.434L811.546 242.61L808.129 237.911L803.858 240.474H799.587V234.921L796.597 228.087L789.763 222.535Z" fill="#E6EAFE"/>
<path d="M910.64 178.113L908.504 172.133L909.786 168.289L913.63 164.445H918.756L924.735 160.601L930.715 153.767L928.152 148.214L923.454 139.244V133.692V127.285L929.007 131.129L936.695 133.692L934.559 137.963H929.007V144.37H932.851L936.695 150.35V155.048L938.403 160.601V167.435H930.715L926.017 172.133L920.891 171.279H917.047L913.63 169.57L911.494 171.279L914.911 175.123L913.63 180.249L910.64 178.113Z" fill="#E6EAFE"/>
<path d="M642.403 162.309L632.152 155.475V145.224L621.473 134.546V128.566L632.152 118.742L640.267 125.149L636.85 128.566H632.152V134.546L640.267 138.39H645.82L648.81 143.088L642.403 145.224L645.82 151.204L648.81 157.611L642.403 162.309Z" fill="#E6EAFE"/>
<path d="M576.198 140.953L566.374 144.37L560.394 135.827L562.957 128.139L571.499 121.305L576.198 128.139H583.032V121.305H591.147V128.139L598.408 132.837L605.242 140.953L598.408 144.37L587.73 140.953H576.198Z" fill="#E6EAFE"/>
<path d="M467.28 88.4158L474.541 99.094L477.531 101.657L474.541 105.501L464.29 108.491H456.174L458.737 101.657V99.094L464.29 93.1142L458.737 88.4158V84.5716V80.3003H464.29L467.28 88.4158Z" fill="#E6EAFE"/>
<path d="M443.787 94.3958L450.621 91.4059C456.089 89.014 454.893 92.4025 453.611 94.3958L450.621 100.803L443.787 104.22V94.3958Z" fill="#E6EAFE"/>
<path d="M413.888 55.954L423.285 52.9641H433.964L438.662 55.954L429.265 61.5066H419.014L413.888 55.954Z" fill="#E6EAFE"/>
<path d="M335.724 52.5369L339.995 45.7028C345.804 43.3109 345.832 38.4416 345.12 36.306L339.995 26.9091L330.598 19.2208H323.337L316.076 16.2309V11.5325H330.598L339.995 6.83404L353.236 4.27127L374.165 6.83404L386.979 2.13562H411.753H429.265L439.516 6.83404L433.109 16.2309L429.265 23.4921L421.15 26.9091L414.743 30.7533L421.15 36.306L414.743 39.723L402.783 43.5672L394.24 45.7028L386.979 48.6927L374.165 52.5369L362.206 58.9438L353.236 71.3306H345.12L335.724 64.4965V52.5369Z" fill="#E6EAFE"/>
<path d="M289.594 8.96972L281.478 16.2309L291.729 20.0751L299.845 16.2309L310.096 12.8139L328.89 8.96972L341.276 0L319.066 2.56278H304.116V8.96972H299.845H289.594Z" fill="#E6EAFE"/>
<path d="M269.519 27.7634H260.976L252.434 32.4618L260.976 37.5873H269.519H279.343L287.031 46.9842V49.9741H279.343L274.217 55.9539L279.343 62.3609L289.594 65.3508L296.001 59.371V52.964H299.418C308.986 55.3559 308.815 51.9674 307.533 49.9741L302.408 43.14L296.001 35.4517L289.594 32.4618H284.468L279.343 29.899L269.519 27.7634Z" fill="#E6EAFE"/>
<path d="M178.54 24.7735L172.133 27.7634L164.445 30.7533L167.008 35.4517L172.133 30.7533H180.676L184.093 35.4517L178.54 42.2858H186.228H191.354H198.188L205.876 40.5773L214.846 39.2959V35.4517V30.7533H211.856H208.012L204.168 27.7634L199.897 30.7533L194.344 27.7634L186.228 24.7735H178.54Z" fill="#E6EAFE"/>
<path d="M299.418 110.627L307.533 115.752L299.418 118.315H291.302L287.458 115.752L291.302 112.762L299.418 105.501V110.627Z" fill="#E6EAFE"/>
<path d="M231.931 142.661L216.982 154.194L214.846 158.465V167.862L204.168 171.706L197.334 177.259L189.218 182.811L192.635 192.635V200.324L187.083 203.314L184.52 200.324V189.218L176.832 185.374L170.425 182.811L160.601 189.218L148.641 185.374L134.973 192.635L131.983 200.324L127.285 216.128L131.983 225.952L138.817 231.931L148.641 228.514L154.621 220.399C163.163 217.665 162.167 221.538 160.601 223.816L156.757 237.911L160.601 240.901H170.425V257.132L178.967 266.956H187.083L178.967 272.509L168.289 266.956L160.601 257.132L156.757 249.871H152.485L141.38 245.599L134.973 237.911H117.888L99.094 225.952V216.128L90.9786 203.314L84.1445 192.635V182.811H79.8732V189.218L84.1445 197.334V211.429L79.8732 206.304L76.0291 197.334L73.0391 185.374V177.259L66.2051 167.862L63.2152 145.651L73.0391 132.41C76.7409 127.712 84.9988 117.973 88.4158 116.606C92.6871 114.898 87.5615 106.782 79.8732 106.782C79.8732 101.315 82.7207 89.6972 84.1445 84.5716L79.8732 79.019L70.9035 72.612L58.9439 67.9136L45.2757 72.612H41.0044L26.482 79.019L0 89.2701L14.9495 76.8833L9.39685 72.612L14.9495 70.4764L18.7937 63.6423H26.482L32.889 59.371C28.4468 57.3208 29.0448 54.2454 29.8991 52.9641H38.4417L45.2757 49.547C43.2255 44.0798 48.1233 42.713 50.8284 42.713L56.3811 40.1502L73.0391 36.306H85.4259L114.898 40.1502L126.857 44.8486L144.37 40.1502H155.475H169.143L181.103 46.9842L192.635 49.547V46.9842L202.887 44.8486L208.439 46.9842L216.982 44.8486H223.389V40.1502H227.66V44.8486L234.067 40.1502V36.306L241.328 33.3161L243.464 40.1502L247.308 44.8486L257.559 40.1502H263.966V44.8486L257.559 49.547H247.308L244.94 53.4366L254.142 56.3811L251.579 61.9338L241.328 59.371L244.94 53.4366L243.464 52.9641L237.484 56.3811L227.66 59.371L219.972 63.6423L208.439 67.9136L202.887 76.8833L211.429 82.8631L216.982 87.1344L225.952 89.2701L223.389 99.5212L227.66 104.647L234.067 99.5212V93.9685L241.328 90.5515L249.871 82.8631V76.8833L254.142 67.9136L261.403 63.6423L275.499 67.9136V72.612L279.77 79.019L291.302 72.612L293.865 87.1344L298.564 93.9685L304.97 96.1041L298.564 102.084L289.167 106.782H279.77H267.81L263.966 113.616H271.227L267.81 122.586L277.634 126.857L267.81 132.41H261.403V126.857H257.559L247.308 132.41L241.328 139.671L231.931 142.661Z" fill="#E6EAFE"/>
<path d="M219.972 231.504H208.012L211.429 224.67H215.7L227.66 227.233L219.972 231.504Z" fill="#E6EAFE"/>
<path d="M190.5 212.283H176.405L180.249 215.273L187.51 219.117L193.917 223.816L207.158 221.68L202.887 219.117L190.5 212.283Z" fill="#E6EAFE"/>
<path d="M184.52 122.586H196.48L188.791 128.993L184.52 138.39L186.656 142.234L191.781 138.39L196.48 126.857H204.168V133.692L213.138 128.993V122.586H208.439L204.168 120.023L199.897 115.325H188.791L184.52 122.586Z" fill="#E6EAFE"/>
<path d="M259.268 21.7836L280.197 25.6278L284.895 21.7836H272.509L264.82 17.9395L259.268 21.7836Z" fill="#E6EAFE"/>
<path d="M282.333 5.12549L279.343 11.1053H273.363L267.383 8.96965L273.363 5.12549H282.333Z" fill="#E6EAFE"/>
<path d="M518.108 88.843L521.952 81.5818L524.515 76.4562L526.651 72.612L521.952 67.4865V62.7881L530.922 59.7981L536.475 51.2556L542.455 55.954L534.339 62.7881L536.475 70.4764H550.997L556.55 72.612L550.997 76.4562H542.455V81.5818H536.475V88.843L530.922 92.6871H526.651L518.108 95.677L513.837 92.6871H504.867L510.42 88.843H518.108Z" fill="#E6EAFE"/>
<path d="M889.284 313.94L893.128 304.116C891.078 301.041 893.982 297.994 895.691 296.855C895.691 294.805 906.796 296.001 912.349 296.855C912.349 303.689 904.376 301.411 900.389 299.418L897.399 302.408L898.681 306.679H905.087L900.389 310.523L902.952 316.503L900.389 319.493L897.399 313.94L895.691 316.503V324.191L889.284 322.91V313.94Z" fill="#E6EAFE"/>
</svg>
