<?xml version="1.0" standalone="no"?>
<!DOCTYPE svg PUBLIC "-//W3C//DTD SVG 20010904//EN"
 "http://www.w3.org/TR/2001/REC-SVG-20010904/DTD/svg10.dtd">
<svg version="1.0" xmlns="http://www.w3.org/2000/svg"
 width="480.000000pt" height="480.000000pt" viewBox="0 0 480.000000 480.000000"
 preserveAspectRatio="xMidYMid meet">
<metadata>
Created by potrace 1.16, written by Peter Selinger 2001-2019
</metadata>
<g transform="translate(0.000000,480.000000) scale(0.100000,-0.100000)"
fill="#000000" stroke="none">
<path d="M2294 4775 c-37 -18 -158 -134 -481 -457 l-432 -433 340 -144 340
-144 56 29 c47 23 69 28 135 28 l79 1 259 400 259 400 -147 148 c-167 167
-212 197 -302 197 -40 0 -71 -7 -106 -25z"/>
<path d="M2705 3978 c-132 -204 -246 -382 -253 -394 -10 -20 -8 -34 12 -95
l24 -72 371 -158 370 -158 43 22 c24 12 44 22 44 22 1 0 28 163 60 363 l58
363 -239 239 c-132 132 -242 240 -245 240 -3 0 -113 -167 -245 -372z"/>
<path d="M991 3496 l-284 -284 303 -441 302 -441 62 0 c33 0 70 -3 81 -5 17
-5 63 61 313 449 l292 454 -32 52 c-27 44 -33 65 -36 125 -4 67 -6 74 -31 85
-30 14 -682 290 -685 290 0 0 -129 -128 -285 -284z"/>
<path d="M3556 3729 c-8 -25 -98 -591 -94 -594 8 -8 79 -55 83 -55 8 0 460
193 467 199 4 4 -96 110 -222 236 -150 150 -231 224 -234 214z"/>
<path d="M2418 3246 c-36 -44 -102 -75 -180 -84 l-63 -7 -282 -435 c-155 -239
-282 -441 -282 -449 -1 -9 6 -11 22 -7 31 8 1500 635 1509 644 3 4 8 23 10 42
l3 34 -345 147 c-190 81 -349 148 -355 148 -5 1 -22 -14 -37 -33z"/>
<path d="M3870 3066 c-135 -58 -245 -110 -245 -117 0 -11 1165 -512 1173 -504
2 2 -6 25 -18 52 -16 38 -89 116 -333 361 -171 171 -316 312 -322 312 -5 0
-120 -47 -255 -104z"/>
<path d="M322 2827 c-204 -205 -286 -294 -301 -327 -27 -60 -27 -88 2 -95 12
-3 265 -57 562 -119 l540 -114 32 36 c18 21 32 41 33 46 0 7 -518 764 -570
833 -17 21 -20 19 -298 -260z"/>
<path d="M3515 2780 c-16 -17 -50 -37 -75 -44 l-45 -13 -27 -159 c-14 -87 -45
-279 -69 -426 l-43 -266 31 -32 c17 -17 37 -52 43 -77 7 -25 18 -47 24 -49 6
-2 169 -37 361 -78 l350 -73 341 339 c187 187 348 352 357 367 l16 28 -607
257 c-334 141 -612 256 -618 256 -5 0 -23 -14 -39 -30z"/>
<path d="M2440 2456 l-755 -323 2 -33 c0 -18 5 -36 10 -40 4 -4 284 -65 622
-134 l614 -127 30 36 c31 38 93 75 126 75 11 0 23 6 28 13 4 6 37 194 74 417
60 365 65 407 51 423 -8 9 -22 17 -31 16 -9 0 -356 -146 -771 -323z"/>
<path d="M60 2243 c0 -5 102 -110 226 -234 l226 -226 276 117 c162 68 277 122
277 130 0 9 -146 44 -495 116 -543 113 -510 107 -510 97z"/>
<path d="M1634 1895 c-5 -20 82 -152 551 -830 306 -443 560 -807 564 -809 4
-3 31 19 60 48 l52 53 94 574 c63 386 91 575 83 578 -26 9 -89 76 -105 112 -9
21 -24 41 -32 44 -28 8 -1233 255 -1247 255 -7 0 -16 -11 -20 -25z"/>
<path d="M883 1792 c-138 -59 -254 -110 -257 -113 -3 -3 54 -64 127 -137 l133
-132 143 221 c132 205 142 224 130 246 -7 12 -15 23 -18 23 -3 0 -119 -49
-258 -108z"/>
<path d="M1455 1773 c-39 -12 -63 -14 -108 -6 l-59 9 -27 -40 c-61 -88 -271
-418 -271 -424 0 -4 285 -292 633 -639 484 -484 643 -637 677 -652 100 -45
210 -18 303 77 l47 48 -565 819 c-310 451 -568 820 -572 821 -5 1 -30 -5 -58
-13z"/>
<path d="M3264 1547 c-23 -18 -48 -36 -56 -42 -11 -7 -35 -133 -87 -460 -40
-247 -75 -463 -78 -480 -4 -24 79 54 450 425 251 250 455 455 454 457 -3 2
-639 134 -641 132 -1 0 -19 -15 -42 -32z"/>
</g>
</svg>
