<svg id="svg" version="1.1" xmlns="http://www.w3.org/2000/svg" xmlns:xlink="http://www.w3.org/1999/xlink" width="400" height="400" viewBox="0, 0, 400,400"><g id="svgg"><path id="path0" d="M182.813 0.498 C 161.254 2.554,134.377 9.218,121.950 15.590 C 121.651 15.743,119.578 16.674,117.344 17.659 C 93.530 28.153,68.362 46.666,50.619 66.741 C 49.849 67.613,48.706 68.903,48.079 69.607 C 43.127 75.175,31.250 91.306,31.250 92.464 C 31.250 92.627,31.136 92.807,30.997 92.865 C 29.873 93.326,20.592 110.455,16.717 119.219 C 8.785 137.159,4.167 153.945,1.254 175.434 C -0.172 185.952,-0.415 209.373,0.782 220.938 C 1.008 223.121,2.378 232.782,2.642 234.050 C 2.730 234.473,2.885 235.387,2.986 236.081 C 4.027 243.235,10.056 265.715,11.283 267.016 C 11.437 267.179,11.563 267.522,11.563 267.778 C 11.562 270.099,21.737 292.006,26.890 300.781 C 29.894 305.897,34.637 313.235,35.036 313.385 C 35.188 313.443,35.313 313.620,35.313 313.779 C 35.312 314.236,42.039 323.379,44.258 325.938 C 44.482 326.195,46.089 328.094,47.830 330.156 C 60.834 345.561,78.357 360.543,95.313 370.753 C 96.945 371.736,98.492 372.668,98.750 372.824 C 103.657 375.789,112.299 380.275,117.656 382.637 C 119.547 383.470,121.727 384.431,122.500 384.771 C 153.389 398.373,195.296 403.483,230.625 397.955 C 236.674 397.009,241.899 395.943,249.219 394.162 C 254.801 392.804,267.274 388.984,269.844 387.845 C 270.188 387.692,272.016 386.973,273.906 386.247 C 275.797 385.521,278.047 384.609,278.906 384.222 C 289.488 379.448,294.265 377.045,294.765 376.244 C 295.015 375.844,289.928 368.650,284.934 362.344 C 284.798 362.172,282.992 359.732,280.921 356.922 C 278.849 354.112,277.020 351.651,276.857 351.454 C 276.693 351.256,275.076 349.076,273.263 346.610 C 271.451 344.145,269.834 341.965,269.669 341.767 C 269.505 341.568,266.475 337.484,262.937 332.690 C 259.399 327.896,256.372 323.817,256.212 323.627 C 256.051 323.437,255.059 322.086,254.007 320.625 C 252.955 319.164,252.009 317.898,251.906 317.813 C 251.803 317.727,251.373 317.164,250.951 316.563 C 250.529 315.961,250.071 315.328,249.932 315.156 C 249.794 314.984,247.218 311.494,244.208 307.401 C 241.198 303.307,238.594 299.791,238.421 299.588 C 238.248 299.385,237.245 298.026,236.192 296.569 C 235.139 295.112,234.088 293.731,233.857 293.500 C 233.626 293.269,233.438 292.983,233.438 292.865 C 233.438 292.747,233.117 292.300,232.726 291.872 C 232.335 291.444,230.691 289.125,229.075 286.719 C 227.458 284.313,226.020 282.297,225.880 282.240 C 225.740 282.182,225.625 282.023,225.625 281.886 C 225.625 281.749,219.700 272.866,212.459 262.147 C 193.712 234.393,169.289 198.337,168.988 197.969 C 168.848 197.797,166.311 194.064,163.351 189.673 C 155.047 177.357,150.180 170.312,149.975 170.313 C 149.664 170.313,149.402 198.120,149.390 232.421 C 149.380 263.234,149.194 283.795,148.900 286.870 C 148.745 288.485,147.625 290.243,145.831 291.689 L 144.631 292.656 137.499 292.760 C 129.649 292.873,129.843 292.912,127.551 290.803 C 124.999 288.456,125.242 299.595,125.289 187.143 L 125.313 130.693 126.726 129.121 C 129.275 126.286,129.987 126.094,137.969 126.094 C 145.683 126.094,147.141 126.341,148.778 127.924 C 149.336 128.464,155.120 136.922,161.632 146.719 C 168.144 156.516,173.675 164.779,173.923 165.082 C 174.172 165.384,174.375 165.771,174.375 165.941 C 174.375 166.111,174.516 166.250,174.688 166.250 C 174.859 166.250,175.000 166.391,175.000 166.564 C 175.000 166.932,184.109 180.732,184.453 180.885 C 184.582 180.943,184.688 181.128,184.688 181.298 C 184.688 181.675,186.583 184.490,186.935 184.635 C 187.074 184.693,187.188 184.939,187.188 185.182 C 187.188 185.426,187.328 185.625,187.500 185.625 C 187.672 185.625,187.813 185.766,187.813 185.939 C 187.813 186.307,196.921 200.107,197.266 200.260 C 197.395 200.318,197.500 200.503,197.500 200.673 C 197.500 201.050,199.396 203.865,199.747 204.010 C 199.886 204.068,200.000 204.237,200.000 204.387 C 200.000 204.740,209.120 218.560,209.443 218.698 C 209.577 218.755,209.688 219.001,209.688 219.245 C 209.688 219.488,209.828 219.688,210.000 219.688 C 210.172 219.688,210.313 219.820,210.313 219.982 C 210.313 220.357,220.034 235.120,220.373 235.260 C 220.512 235.318,220.625 235.494,220.625 235.652 C 220.625 236.004,228.499 247.927,228.828 248.073 C 228.957 248.130,229.063 248.316,229.063 248.485 C 229.062 248.862,230.958 251.678,231.310 251.823 C 231.449 251.880,231.563 252.048,231.563 252.196 C 231.563 252.554,240.673 266.377,240.997 266.510 C 241.136 266.568,241.250 266.744,241.250 266.902 C 241.250 267.146,249.545 279.859,250.000 280.313 C 250.087 280.398,250.355 280.853,250.597 281.323 C 250.839 281.793,251.296 282.455,251.612 282.794 C 251.929 283.134,252.188 283.488,252.188 283.582 C 252.188 283.855,260.132 295.770,260.391 295.885 C 260.520 295.943,260.625 296.128,260.625 296.298 C 260.625 296.675,262.521 299.490,262.872 299.635 C 263.011 299.693,263.125 299.859,263.125 300.006 C 263.125 300.369,272.853 315.130,273.179 315.260 C 273.321 315.318,273.438 315.494,273.438 315.652 C 273.438 315.897,281.109 327.673,281.563 328.125 C 281.649 328.211,281.918 328.666,282.160 329.135 C 282.402 329.605,282.859 330.267,283.175 330.607 C 283.491 330.946,283.750 331.301,283.750 331.395 C 283.750 331.560,291.560 343.435,291.875 343.750 C 291.962 343.836,292.230 344.291,292.472 344.760 C 292.714 345.230,293.171 345.892,293.487 346.232 C 293.804 346.571,294.063 346.995,294.063 347.174 C 294.063 347.353,294.203 347.500,294.375 347.500 C 294.547 347.500,294.688 347.633,294.688 347.795 C 294.688 348.169,304.409 362.933,304.748 363.073 C 304.887 363.130,305.000 363.312,305.000 363.478 C 305.000 363.912,308.097 368.438,308.394 368.438 C 308.978 368.438,321.444 359.570,323.926 357.390 C 324.346 357.021,325.134 356.367,325.677 355.938 C 331.080 351.663,341.302 342.235,345.000 338.116 C 346.289 336.681,347.965 334.865,348.724 334.081 C 353.805 328.837,368.438 309.612,368.438 308.181 C 368.438 308.007,368.548 307.818,368.682 307.760 C 368.817 307.703,369.485 306.737,370.167 305.614 C 370.848 304.491,371.578 303.295,371.789 302.958 C 374.680 298.318,380.890 286.411,382.947 281.563 C 383.421 280.445,383.936 279.287,384.092 278.988 C 384.507 278.193,388.007 269.353,388.270 268.438 C 388.393 268.008,388.826 266.806,389.232 265.766 C 390.804 261.737,394.942 247.022,395.735 242.637 C 395.826 242.132,396.256 239.924,396.689 237.732 C 397.617 233.030,398.946 224.009,399.232 220.469 C 399.343 219.094,399.499 217.617,399.579 217.188 C 400.509 212.191,399.855 183.550,398.600 174.295 C 391.953 125.300,370.605 84.973,332.969 50.321 C 309.518 28.730,269.206 8.444,240.781 3.931 C 240.094 3.822,238.898 3.612,238.125 3.465 C 234.751 2.823,226.728 1.537,223.281 1.086 C 215.972 0.128,190.565 -0.241,182.813 0.498 M268.281 121.220 C 269.731 121.893,271.657 123.805,272.247 125.156 C 272.627 126.028,273.035 237.359,272.742 260.291 L 272.656 266.988 270.625 263.885 C 269.508 262.178,268.488 260.734,268.359 260.677 C 268.230 260.620,268.125 260.374,268.125 260.130 C 268.125 259.887,267.984 259.688,267.813 259.688 C 267.641 259.688,267.500 259.535,267.500 259.349 C 267.500 259.163,266.586 257.672,265.469 256.035 C 264.352 254.399,263.438 252.934,263.438 252.780 C 263.438 252.626,263.297 252.500,263.125 252.500 C 262.953 252.500,262.813 252.365,262.813 252.200 C 262.813 252.036,259.490 246.826,255.429 240.624 L 248.046 229.347 248.185 178.033 C 248.323 127.392,248.333 126.700,248.956 125.309 C 249.734 123.568,251.303 121.963,252.962 121.210 C 254.852 120.351,266.428 120.358,268.281 121.220 M306.225 369.117 C 305.472 369.662,305.018 370.162,305.217 370.229 C 305.706 370.391,307.804 369.005,307.809 368.516 C 307.814 367.979,307.774 367.994,306.225 369.117 M303.576 370.756 C 303.242 370.999,303.063 371.292,303.177 371.406 C 303.440 371.669,304.688 371.015,304.688 370.614 C 304.688 370.188,304.281 370.240,303.576 370.756 M301.563 372.031 C 301.349 372.289,301.015 372.503,300.821 372.507 C 300.323 372.517,298.822 373.735,299.297 373.743 C 299.815 373.752,302.802 372.096,302.808 371.797 C 302.816 371.385,301.966 371.545,301.563 372.031 M296.641 374.742 C 295.407 375.505,295.302 376.045,296.474 375.599 C 297.473 375.220,298.125 374.721,298.125 374.337 C 298.125 373.941,297.788 374.033,296.641 374.742 " stroke="none" fill="#1c1c1c" fill-rule="evenodd"></path><path id="path1" d="M125.079 244.531 C 125.082 245.219,125.146 245.463,125.221 245.074 C 125.296 244.686,125.293 244.123,125.215 243.824 C 125.136 243.526,125.075 243.844,125.079 244.531 M125.073 256.250 C 125.073 256.852,125.137 257.098,125.215 256.797 C 125.294 256.496,125.294 256.004,125.215 255.703 C 125.137 255.402,125.073 255.648,125.073 256.250 " stroke="none" fill="#201c1c" fill-rule="evenodd"></path><path id="path2" d="M125.079 244.531 C 125.082 245.219,125.146 245.463,125.221 245.074 C 125.296 244.686,125.293 244.123,125.215 243.824 C 125.136 243.526,125.075 243.844,125.079 244.531 M125.073 256.250 C 125.073 256.852,125.137 257.098,125.215 256.797 C 125.294 256.496,125.294 256.004,125.215 255.703 C 125.137 255.402,125.073 255.648,125.073 256.250 " stroke="none" fill="#201c1c" fill-rule="evenodd"></path><path id="path3" d="M125.079 244.531 C 125.082 245.219,125.146 245.463,125.221 245.074 C 125.296 244.686,125.293 244.123,125.215 243.824 C 125.136 243.526,125.075 243.844,125.079 244.531 M125.073 256.250 C 125.073 256.852,125.137 257.098,125.215 256.797 C 125.294 256.496,125.294 256.004,125.215 255.703 C 125.137 255.402,125.073 255.648,125.073 256.250 " stroke="none" fill="#201c1c" fill-rule="evenodd"></path><path id="path4" d="M125.079 244.531 C 125.082 245.219,125.146 245.463,125.221 245.074 C 125.296 244.686,125.293 244.123,125.215 243.824 C 125.136 243.526,125.075 243.844,125.079 244.531 M125.073 256.250 C 125.073 256.852,125.137 257.098,125.215 256.797 C 125.294 256.496,125.294 256.004,125.215 255.703 C 125.137 255.402,125.073 255.648,125.073 256.250 " stroke="none" fill="#201c1c" fill-rule="evenodd"></path></g></svg>