<svg id="svg" version="1.1" xmlns="http://www.w3.org/2000/svg" xmlns:xlink="http://www.w3.org/1999/xlink" width="400" height="400" viewBox="0, 0, 400,400"><g id="svgg"><path id="path0" d="M53.500 0.293 C 52.235 0.374,51.200 0.611,51.200 0.820 C 51.200 1.029,50.480 1.200,49.600 1.200 C 48.720 1.200,48.000 1.380,48.000 1.600 C 48.000 1.820,47.460 2.000,46.800 2.000 C 46.140 2.000,45.600 2.180,45.600 2.400 C 45.600 2.620,45.096 2.800,44.480 2.800 C 43.864 2.800,43.137 3.023,42.865 3.295 C 42.592 3.568,42.151 3.806,41.885 3.824 C 40.962 3.888,38.800 4.880,38.800 5.239 C 38.800 5.438,38.440 5.600,38.000 5.600 C 37.560 5.600,37.200 5.780,37.200 6.000 C 37.200 6.220,36.840 6.400,36.400 6.400 C 35.960 6.400,35.600 6.580,35.600 6.800 C 35.600 7.020,35.150 7.200,34.600 7.200 C 34.050 7.200,33.600 7.380,33.600 7.600 C 33.600 7.820,33.364 8.000,33.075 8.000 C 32.787 8.000,32.164 8.360,31.692 8.800 C 31.220 9.240,30.596 9.600,30.305 9.600 C 30.014 9.600,29.517 9.960,29.200 10.400 C 28.883 10.840,28.369 11.200,28.059 11.200 C 27.748 11.200,27.203 11.517,26.847 11.904 C 26.491 12.292,25.491 13.137,24.624 13.783 C 22.654 15.250,13.600 24.234,13.600 24.722 C 13.600 24.920,13.060 25.646,12.400 26.337 C 11.740 27.028,11.200 27.825,11.200 28.108 C 11.200 28.391,10.840 28.883,10.400 29.200 C 9.960 29.517,9.600 30.014,9.600 30.305 C 9.600 30.596,9.240 31.220,8.800 31.692 C 8.360 32.164,8.000 32.787,8.000 33.075 C 8.000 33.364,7.820 33.600,7.600 33.600 C 7.380 33.600,7.200 34.050,7.200 34.600 C 7.200 35.150,7.020 35.600,6.800 35.600 C 6.580 35.600,6.400 35.960,6.400 36.400 C 6.400 36.840,6.220 37.200,6.000 37.200 C 5.780 37.200,5.600 37.483,5.600 37.829 C 5.600 38.174,5.320 38.737,4.977 39.080 C 4.634 39.423,4.443 39.935,4.552 40.218 C 4.660 40.502,4.494 40.832,4.181 40.952 C 3.869 41.072,3.709 41.418,3.825 41.721 C 3.941 42.024,3.758 42.503,3.418 42.785 C 3.078 43.067,2.800 43.816,2.800 44.449 C 2.800 45.082,2.620 45.600,2.400 45.600 C 2.180 45.600,2.000 46.140,2.000 46.800 C 2.000 47.460,1.820 48.000,1.600 48.000 C 1.380 48.000,1.200 48.705,1.200 49.567 C 1.200 50.464,0.987 51.204,0.700 51.300 C -0.036 51.545,-0.036 347.724,0.700 348.460 C 0.975 348.735,1.200 349.644,1.200 350.480 C 1.200 351.316,1.380 352.000,1.600 352.000 C 1.820 352.000,2.000 352.540,2.000 353.200 C 2.000 353.860,2.180 354.400,2.400 354.400 C 2.620 354.400,2.800 354.918,2.800 355.551 C 2.800 356.184,3.072 356.928,3.405 357.204 C 3.738 357.481,3.983 357.908,3.948 358.153 C 3.850 358.861,4.841 361.200,5.239 361.200 C 5.438 361.200,5.600 361.560,5.600 362.000 C 5.600 362.440,5.780 362.800,6.000 362.800 C 6.220 362.800,6.400 363.160,6.400 363.600 C 6.400 364.040,6.580 364.400,6.800 364.400 C 7.020 364.400,7.200 364.850,7.200 365.400 C 7.200 365.950,7.380 366.400,7.600 366.400 C 7.820 366.400,8.000 366.636,8.000 366.925 C 8.000 367.213,8.360 367.836,8.800 368.308 C 9.240 368.780,9.600 369.404,9.600 369.695 C 9.600 369.986,9.960 370.483,10.400 370.800 C 10.840 371.117,11.200 371.609,11.200 371.892 C 11.200 372.175,11.740 372.972,12.400 373.663 C 13.060 374.354,13.600 375.077,13.600 375.271 C 13.600 375.770,23.113 385.212,24.800 386.387 C 25.570 386.923,26.491 387.686,26.847 388.081 C 27.203 388.476,27.748 388.800,28.059 388.800 C 28.369 388.800,28.883 389.160,29.200 389.600 C 29.517 390.040,30.014 390.400,30.305 390.400 C 30.596 390.400,31.220 390.760,31.692 391.200 C 32.164 391.640,32.787 392.000,33.075 392.000 C 33.364 392.000,33.600 392.180,33.600 392.400 C 33.600 392.620,34.050 392.800,34.600 392.800 C 35.150 392.800,35.600 392.980,35.600 393.200 C 35.600 393.420,35.960 393.600,36.400 393.600 C 36.840 393.600,37.200 393.780,37.200 394.000 C 37.200 394.220,37.560 394.400,38.000 394.400 C 38.440 394.400,38.800 394.545,38.800 394.723 C 38.800 394.901,39.565 395.361,40.500 395.747 C 41.435 396.132,42.513 396.617,42.895 396.824 C 43.277 397.031,44.042 397.200,44.595 397.200 C 45.148 397.200,45.600 397.380,45.600 397.600 C 45.600 397.820,46.140 398.000,46.800 398.000 C 47.460 398.000,48.000 398.180,48.000 398.400 C 48.000 398.620,48.684 398.800,49.520 398.800 C 50.356 398.800,51.265 399.025,51.540 399.300 C 52.275 400.035,347.725 400.035,348.460 399.300 C 348.735 399.025,349.644 398.800,350.480 398.800 C 351.316 398.800,352.000 398.620,352.000 398.400 C 352.000 398.180,352.540 398.000,353.200 398.000 C 353.860 398.000,354.400 397.820,354.400 397.600 C 354.400 397.380,354.852 397.200,355.405 397.200 C 355.958 397.200,356.723 397.038,357.105 396.841 C 357.487 396.644,358.565 396.166,359.500 395.780 C 360.435 395.394,361.200 394.926,361.200 394.739 C 361.200 394.553,361.560 394.400,362.000 394.400 C 362.440 394.400,362.800 394.220,362.800 394.000 C 362.800 393.780,363.160 393.600,363.600 393.600 C 364.040 393.600,364.400 393.420,364.400 393.200 C 364.400 392.980,364.850 392.800,365.400 392.800 C 365.950 392.800,366.400 392.620,366.400 392.400 C 366.400 392.180,366.636 392.000,366.925 392.000 C 367.213 392.000,367.836 391.640,368.308 391.200 C 368.780 390.760,369.404 390.400,369.695 390.400 C 369.986 390.400,370.483 390.040,370.800 389.600 C 371.117 389.160,371.615 388.800,371.906 388.800 C 372.198 388.800,372.886 388.350,373.436 387.800 C 373.986 387.250,374.625 386.800,374.855 386.800 C 375.357 386.800,386.800 375.292,386.800 374.787 C 386.800 374.594,387.250 373.986,387.800 373.436 C 388.350 372.886,388.800 372.198,388.800 371.906 C 388.800 371.615,389.160 371.117,389.600 370.800 C 390.040 370.483,390.400 369.986,390.400 369.695 C 390.400 369.404,390.760 368.780,391.200 368.308 C 391.640 367.836,392.000 367.213,392.000 366.925 C 392.000 366.636,392.180 366.400,392.400 366.400 C 392.620 366.400,392.800 365.950,392.800 365.400 C 392.800 364.850,392.980 364.400,393.200 364.400 C 393.420 364.400,393.600 364.040,393.600 363.600 C 393.600 363.160,393.780 362.800,394.000 362.800 C 394.220 362.800,394.400 362.459,394.400 362.043 C 394.400 361.626,394.670 361.182,395.000 361.055 C 395.330 360.929,395.600 360.547,395.600 360.207 C 395.600 359.608,395.765 359.186,396.738 357.305 C 396.992 356.813,397.200 355.958,397.200 355.405 C 397.200 354.852,397.380 354.400,397.600 354.400 C 397.820 354.400,398.000 353.860,398.000 353.200 C 398.000 352.540,398.180 352.000,398.400 352.000 C 398.620 352.000,398.800 351.316,398.800 350.480 C 398.800 349.644,399.025 348.735,399.300 348.460 C 399.698 348.062,399.800 317.777,399.800 199.713 C 399.800 81.472,399.699 51.433,399.300 51.300 C 399.013 51.204,398.800 50.464,398.800 49.567 C 398.800 48.705,398.620 48.000,398.400 48.000 C 398.180 48.000,398.000 47.460,398.000 46.800 C 398.000 46.140,397.820 45.600,397.600 45.600 C 397.380 45.600,397.200 45.148,397.200 44.595 C 397.200 44.042,397.031 43.277,396.824 42.895 C 396.617 42.513,396.132 41.435,395.747 40.500 C 395.361 39.565,394.901 38.800,394.723 38.800 C 394.545 38.800,394.400 38.440,394.400 38.000 C 394.400 37.560,394.220 37.200,394.000 37.200 C 393.780 37.200,393.600 36.840,393.600 36.400 C 393.600 35.960,393.420 35.600,393.200 35.600 C 392.980 35.600,392.800 35.150,392.800 34.600 C 392.800 34.050,392.620 33.600,392.400 33.600 C 392.180 33.600,392.000 33.364,392.000 33.075 C 392.000 32.787,391.640 32.164,391.200 31.692 C 390.760 31.220,390.400 30.596,390.400 30.305 C 390.400 30.014,390.040 29.517,389.600 29.200 C 389.160 28.883,388.800 28.385,388.800 28.094 C 388.800 27.802,388.350 27.114,387.800 26.564 C 387.250 26.014,386.800 25.381,386.800 25.157 C 386.800 24.645,375.326 13.200,374.813 13.200 C 374.606 13.200,373.986 12.750,373.436 12.200 C 372.886 11.650,372.198 11.200,371.906 11.200 C 371.615 11.200,371.117 10.840,370.800 10.400 C 370.483 9.960,369.986 9.600,369.695 9.600 C 369.404 9.600,368.780 9.240,368.308 8.800 C 367.836 8.360,367.213 8.000,366.925 8.000 C 366.636 8.000,366.400 7.820,366.400 7.600 C 366.400 7.380,365.950 7.200,365.400 7.200 C 364.850 7.200,364.400 7.020,364.400 6.800 C 364.400 6.580,364.040 6.400,363.600 6.400 C 363.160 6.400,362.800 6.220,362.800 6.000 C 362.800 5.780,362.440 5.600,362.000 5.600 C 361.560 5.600,361.200 5.442,361.200 5.249 C 361.200 4.899,359.102 3.893,358.048 3.737 C 357.744 3.692,357.303 3.463,357.068 3.228 C 356.832 2.992,356.136 2.800,355.520 2.800 C 354.904 2.800,354.400 2.620,354.400 2.400 C 354.400 2.180,353.860 2.000,353.200 2.000 C 352.540 2.000,352.000 1.820,352.000 1.600 C 352.000 1.380,351.295 1.200,350.433 1.200 C 349.536 1.200,348.796 0.987,348.700 0.700 C 348.544 0.233,60.638 -0.164,53.500 0.293 M227.200 87.600 C 227.200 87.845,229.133 88.000,232.200 88.000 C 235.267 88.000,237.200 88.155,237.200 88.400 C 237.200 88.629,238.400 88.800,240.000 88.800 C 241.600 88.800,242.800 88.971,242.800 89.200 C 242.800 89.420,243.610 89.600,244.600 89.600 C 245.590 89.600,246.400 89.780,246.400 90.000 C 246.400 90.220,247.120 90.400,248.000 90.400 C 248.880 90.400,249.600 90.580,249.600 90.800 C 249.600 91.020,250.140 91.200,250.800 91.200 C 251.460 91.200,252.000 91.380,252.000 91.600 C 252.000 91.820,252.641 92.000,253.424 92.000 C 254.271 92.000,254.747 92.162,254.600 92.400 C 254.453 92.638,254.929 92.800,255.776 92.800 C 256.559 92.800,257.200 92.980,257.200 93.200 C 257.200 93.420,257.560 93.600,258.000 93.600 C 258.440 93.600,258.800 93.780,258.800 94.000 C 258.800 94.220,259.340 94.400,260.000 94.400 C 260.800 94.400,261.200 94.600,261.200 95.000 C 261.200 95.333,261.556 95.600,262.000 95.600 C 262.440 95.600,262.800 95.780,262.800 96.000 C 262.800 96.220,263.160 96.400,263.600 96.400 C 264.040 96.400,264.400 96.580,264.400 96.800 C 264.400 97.020,264.670 97.200,265.000 97.200 C 265.330 97.200,265.600 97.380,265.600 97.600 C 265.600 97.820,265.960 98.000,266.400 98.000 C 266.840 98.000,267.200 98.180,267.200 98.400 C 267.200 98.620,267.520 98.800,267.912 98.800 C 268.303 98.800,268.883 99.160,269.200 99.600 C 269.517 100.040,270.021 100.400,270.320 100.400 C 270.618 100.400,271.554 101.120,272.400 102.000 C 273.246 102.880,274.142 103.600,274.392 103.600 C 274.642 103.600,274.736 103.780,274.600 104.000 C 274.460 104.227,274.796 104.400,275.376 104.400 C 275.941 104.400,276.400 104.629,276.400 104.912 C 276.400 105.193,276.760 105.683,277.200 106.000 C 277.640 106.317,278.000 106.821,278.000 107.120 C 278.000 107.418,278.720 108.354,279.600 109.200 C 280.480 110.046,281.200 110.982,281.200 111.280 C 281.200 111.579,281.560 112.083,282.000 112.400 C 282.440 112.717,282.800 113.231,282.800 113.542 C 282.800 113.854,283.248 114.524,283.796 115.031 C 284.397 115.588,284.697 116.202,284.553 116.577 C 284.398 116.982,284.540 117.200,284.957 117.200 C 285.333 117.200,285.600 117.532,285.600 118.000 C 285.600 118.440,285.780 118.800,286.000 118.800 C 286.220 118.800,286.400 119.340,286.400 120.000 C 286.400 120.660,286.580 121.200,286.800 121.200 C 287.020 121.200,287.200 121.560,287.200 122.000 C 287.200 122.440,287.380 122.800,287.600 122.800 C 287.820 122.800,288.000 123.430,288.000 124.200 C 288.000 124.970,288.180 125.600,288.400 125.600 C 288.620 125.600,288.800 126.320,288.800 127.200 C 288.800 128.080,288.980 128.800,289.200 128.800 C 289.420 128.800,289.600 129.700,289.600 130.800 C 289.600 131.900,289.780 132.800,290.000 132.800 C 290.239 132.800,290.400 134.333,290.400 136.600 C 290.400 138.867,290.561 140.400,290.800 140.400 C 291.041 140.400,291.200 142.067,291.200 144.600 C 291.200 147.133,291.041 148.800,290.800 148.800 C 290.565 148.800,290.400 150.200,290.400 152.200 C 290.400 154.200,290.235 155.600,290.000 155.600 C 289.780 155.600,289.600 156.500,289.600 157.600 C 289.600 158.700,289.420 159.600,289.200 159.600 C 288.980 159.600,288.800 160.140,288.800 160.800 C 288.800 161.460,288.620 162.000,288.400 162.000 C 288.180 162.000,288.000 162.641,288.000 163.424 C 288.000 164.271,287.838 164.747,287.600 164.600 C 287.373 164.460,287.200 164.796,287.200 165.376 C 287.200 165.939,287.020 166.400,286.800 166.400 C 286.580 166.400,286.400 166.940,286.400 167.600 C 286.400 168.260,286.220 168.800,286.000 168.800 C 285.780 168.800,285.600 169.160,285.600 169.600 C 285.600 170.058,285.333 170.400,284.976 170.400 C 284.633 170.400,284.464 170.580,284.600 170.800 C 284.736 171.020,284.556 171.200,284.200 171.200 C 283.844 171.200,283.655 171.365,283.780 171.568 C 283.905 171.770,283.736 172.207,283.404 172.539 C 283.072 172.871,282.800 173.526,282.800 173.995 C 282.800 174.464,282.620 174.736,282.400 174.600 C 282.180 174.464,282.000 174.594,282.000 174.888 C 282.000 175.183,281.640 175.683,281.200 176.000 C 280.760 176.317,280.400 176.810,280.400 177.096 C 280.400 177.591,275.459 182.800,274.989 182.800 C 274.683 182.800,272.800 184.701,272.800 185.010 C 272.800 185.463,271.665 186.400,271.117 186.400 C 270.820 186.400,270.317 186.760,270.000 187.200 C 269.683 187.640,269.143 188.000,268.800 188.000 C 268.457 188.000,267.917 188.360,267.600 188.800 C 267.283 189.240,266.703 189.600,266.312 189.600 C 265.920 189.600,265.600 189.780,265.600 190.000 C 265.600 190.220,265.240 190.400,264.800 190.400 C 264.360 190.400,264.000 190.580,264.000 190.800 C 264.000 191.020,263.730 191.200,263.400 191.200 C 263.070 191.200,262.800 191.380,262.800 191.600 C 262.800 191.820,262.440 192.000,262.000 192.000 C 261.560 192.000,261.200 192.180,261.200 192.400 C 261.200 192.620,260.840 192.800,260.400 192.800 C 259.960 192.800,259.600 192.959,259.600 193.153 C 259.600 193.348,259.240 193.601,258.800 193.716 C 256.904 194.212,258.348 196.400,260.571 196.400 C 261.357 196.400,262.000 196.580,262.000 196.800 C 262.000 197.020,262.641 197.200,263.424 197.200 C 264.271 197.200,264.747 197.362,264.600 197.600 C 264.453 197.838,264.929 198.000,265.776 198.000 C 266.559 198.000,267.200 198.180,267.200 198.400 C 267.200 198.620,267.740 198.800,268.400 198.800 C 269.060 198.800,269.600 198.980,269.600 199.200 C 269.600 199.420,269.960 199.600,270.400 199.600 C 270.840 199.600,271.200 199.780,271.200 200.000 C 271.200 200.220,271.560 200.400,272.000 200.400 C 272.440 200.400,272.800 200.580,272.800 200.800 C 272.800 201.020,273.261 201.200,273.824 201.200 C 274.404 201.200,274.740 201.373,274.600 201.600 C 274.462 201.823,274.766 202.000,275.288 202.000 C 275.803 202.000,276.483 202.360,276.800 202.800 C 277.117 203.240,277.620 203.600,277.917 203.600 C 278.471 203.600,279.600 204.539,279.600 205.000 C 279.600 205.461,280.729 206.400,281.283 206.400 C 281.580 206.400,282.083 206.760,282.400 207.200 C 282.717 207.640,283.217 208.000,283.512 208.000 C 283.806 208.000,283.936 208.180,283.800 208.400 C 283.664 208.620,283.844 208.800,284.200 208.800 C 284.556 208.800,284.736 208.980,284.600 209.200 C 284.464 209.420,284.549 209.600,284.790 209.600 C 285.406 209.600,288.000 212.265,288.000 212.898 C 288.000 213.187,288.360 213.683,288.800 214.000 C 289.240 214.317,289.600 214.807,289.600 215.088 C 289.600 215.370,289.780 215.600,290.000 215.600 C 290.220 215.600,290.400 215.920,290.400 216.312 C 290.400 216.703,290.760 217.283,291.200 217.600 C 291.640 217.917,292.000 218.457,292.000 218.800 C 292.000 219.143,292.360 219.683,292.800 220.000 C 293.240 220.317,293.600 220.798,293.600 221.068 C 293.600 221.339,293.898 221.727,294.262 221.931 C 294.660 222.153,294.824 222.560,294.674 222.950 C 294.514 223.368,294.635 223.600,295.013 223.600 C 295.417 223.600,295.600 224.036,295.600 225.000 C 295.600 225.770,295.780 226.400,296.000 226.400 C 296.220 226.400,296.400 226.760,296.400 227.200 C 296.400 227.640,296.580 228.000,296.800 228.000 C 297.020 228.000,297.200 228.540,297.200 229.200 C 297.200 229.860,297.380 230.400,297.600 230.400 C 297.820 230.400,298.000 230.940,298.000 231.600 C 298.000 232.260,298.180 232.800,298.400 232.800 C 298.620 232.800,298.800 233.610,298.800 234.600 C 298.800 235.590,298.980 236.400,299.200 236.400 C 299.420 236.400,299.600 237.120,299.600 238.000 C 299.600 238.880,299.780 239.600,300.000 239.600 C 300.231 239.600,300.400 240.867,300.400 242.600 C 300.400 244.333,300.569 245.600,300.800 245.600 C 301.055 245.600,301.200 248.933,301.200 254.800 C 301.200 260.667,301.055 264.000,300.800 264.000 C 300.578 264.000,300.400 265.067,300.400 266.400 C 300.400 267.733,300.222 268.800,300.000 268.800 C 299.780 268.800,299.600 269.700,299.600 270.800 C 299.600 271.900,299.420 272.800,299.200 272.800 C 298.980 272.800,298.800 273.430,298.800 274.200 C 298.800 274.970,298.620 275.600,298.400 275.600 C 298.180 275.600,298.000 276.140,298.000 276.800 C 298.000 277.460,297.820 278.000,297.600 278.000 C 297.380 278.000,297.200 278.540,297.200 279.200 C 297.200 279.860,297.020 280.400,296.800 280.400 C 296.580 280.400,296.400 280.760,296.400 281.200 C 296.400 281.640,296.220 282.000,296.000 282.000 C 295.780 282.000,295.600 282.341,295.600 282.757 C 295.600 283.174,295.344 283.613,295.031 283.733 C 294.683 283.866,294.546 284.271,294.678 284.776 C 294.830 285.357,294.703 285.600,294.247 285.600 C 293.891 285.600,293.600 285.920,293.600 286.312 C 293.600 286.703,293.240 287.283,292.800 287.600 C 292.360 287.917,292.000 288.457,292.000 288.800 C 292.000 289.143,291.640 289.683,291.200 290.000 C 290.760 290.317,290.400 290.809,290.400 291.092 C 290.400 291.375,289.860 292.172,289.200 292.863 C 288.540 293.554,288.000 294.283,288.000 294.483 C 288.000 294.683,287.820 294.736,287.600 294.600 C 287.380 294.464,287.200 294.633,287.200 294.976 C 287.200 295.319,287.020 295.600,286.800 295.600 C 286.580 295.600,286.400 295.883,286.400 296.229 C 286.400 296.959,285.462 298.000,284.805 298.000 C 284.556 298.000,284.464 298.180,284.600 298.400 C 284.736 298.620,284.465 298.800,283.998 298.800 C 283.505 298.800,282.331 299.639,281.200 300.800 C 280.129 301.900,279.047 302.800,278.797 302.800 C 278.201 302.800,277.200 303.814,277.200 304.418 C 277.200 304.696,276.868 304.807,276.400 304.684 C 275.880 304.548,275.600 304.672,275.600 305.037 C 275.600 305.347,275.319 305.600,274.976 305.600 C 274.633 305.600,274.464 305.780,274.600 306.000 C 274.740 306.227,274.404 306.400,273.824 306.400 C 273.261 306.400,272.800 306.580,272.800 306.800 C 272.800 307.020,272.480 307.200,272.088 307.200 C 271.697 307.200,271.117 307.560,270.800 308.000 C 270.483 308.440,269.903 308.800,269.512 308.800 C 269.120 308.800,268.800 308.980,268.800 309.200 C 268.800 309.420,268.440 309.600,268.000 309.600 C 267.560 309.600,267.200 309.780,267.200 310.000 C 267.200 310.220,266.559 310.400,265.776 310.400 C 264.929 310.400,264.453 310.562,264.600 310.800 C 264.740 311.027,264.404 311.200,263.824 311.200 C 263.261 311.200,262.800 311.380,262.800 311.600 C 262.800 311.820,262.440 312.000,262.000 312.000 C 261.560 312.000,261.200 312.180,261.200 312.400 C 261.200 312.620,260.660 312.800,260.000 312.800 C 259.340 312.800,258.800 312.980,258.800 313.200 C 258.800 313.420,258.260 313.600,257.600 313.600 C 256.762 313.600,256.400 313.795,256.400 314.245 C 256.400 314.739,256.110 314.848,255.163 314.709 C 254.360 314.591,253.854 314.716,253.720 315.064 C 253.597 315.385,252.890 315.600,251.957 315.600 C 251.101 315.600,250.400 315.780,250.400 316.000 C 250.400 316.220,249.680 316.400,248.800 316.400 C 247.920 316.400,247.200 316.580,247.200 316.800 C 247.200 317.020,246.210 317.200,245.000 317.200 C 243.790 317.200,242.800 317.380,242.800 317.600 C 242.800 317.822,241.733 318.000,240.400 318.000 C 239.067 318.000,238.000 318.178,238.000 318.400 C 238.000 318.635,236.600 318.800,234.600 318.800 C 232.600 318.800,231.200 318.965,231.200 319.200 C 231.200 319.465,210.533 319.600,170.000 319.600 L 108.800 319.600 108.800 203.983 C 108.800 112.059,108.902 88.250,109.300 87.798 C 109.921 87.093,227.200 86.896,227.200 87.600 M149.300 120.198 C 148.657 120.928,148.559 184.400,149.200 184.400 C 149.420 184.400,149.600 184.670,149.600 185.000 C 149.600 185.529,153.667 185.600,183.800 185.600 C 213.933 185.600,218.000 185.529,218.000 185.000 C 218.000 184.509,218.689 184.400,221.800 184.400 C 224.067 184.400,225.600 184.239,225.600 184.000 C 225.600 183.780,226.320 183.600,227.200 183.600 C 228.080 183.600,228.800 183.420,228.800 183.200 C 228.800 182.980,229.340 182.800,230.000 182.800 C 230.660 182.800,231.200 182.620,231.200 182.400 C 231.200 182.180,231.560 182.000,232.000 182.000 C 232.440 182.000,232.800 181.820,232.800 181.600 C 232.800 181.380,233.390 181.200,234.112 181.200 C 234.965 181.200,235.625 180.920,236.000 180.400 C 236.317 179.960,236.857 179.600,237.200 179.600 C 237.543 179.600,238.083 179.240,238.400 178.800 C 238.717 178.360,239.213 178.000,239.502 178.000 C 240.012 178.000,242.800 175.460,242.800 174.995 C 242.800 174.593,244.745 172.800,245.182 172.800 C 245.412 172.800,245.600 172.480,245.600 172.088 C 245.600 171.697,245.960 171.117,246.400 170.800 C 246.840 170.483,247.200 169.903,247.200 169.512 C 247.200 169.120,247.380 168.800,247.600 168.800 C 247.820 168.800,248.000 168.440,248.000 168.000 C 248.000 167.560,248.180 167.200,248.400 167.200 C 248.620 167.200,248.800 166.570,248.800 165.800 C 248.800 165.030,248.980 164.400,249.200 164.400 C 249.420 164.400,249.600 163.680,249.600 162.800 C 249.600 161.920,249.780 161.200,250.000 161.200 C 250.235 161.200,250.400 159.800,250.400 157.800 C 250.400 155.800,250.565 154.400,250.800 154.400 C 251.029 154.400,251.200 153.200,251.200 151.600 C 251.200 150.000,251.029 148.800,250.800 148.800 C 250.565 148.800,250.400 147.400,250.400 145.400 C 250.400 143.400,250.235 142.000,250.000 142.000 C 249.780 142.000,249.600 141.100,249.600 140.000 C 249.600 138.900,249.420 138.000,249.200 138.000 C 248.980 138.000,248.800 137.640,248.800 137.200 C 248.800 136.760,248.620 136.400,248.400 136.400 C 248.180 136.400,248.000 135.759,248.000 134.976 C 248.000 134.129,247.838 133.653,247.600 133.800 C 247.377 133.938,247.200 133.634,247.200 133.112 C 247.200 132.597,246.840 131.917,246.400 131.600 C 245.960 131.283,245.600 130.703,245.600 130.312 C 245.600 129.920,245.406 129.600,245.169 129.600 C 244.931 129.600,244.046 128.880,243.200 128.000 C 242.354 127.120,241.456 126.400,241.203 126.400 C 240.641 126.400,239.600 125.403,239.600 124.866 C 239.600 124.651,239.240 124.569,238.800 124.684 C 238.235 124.832,238.000 124.696,238.000 124.223 C 238.000 123.854,237.835 123.655,237.632 123.780 C 237.430 123.905,236.993 123.736,236.661 123.404 C 236.329 123.072,235.504 122.800,234.829 122.800 C 234.153 122.800,233.600 122.620,233.600 122.400 C 233.600 122.180,233.060 122.000,232.400 122.000 C 231.740 122.000,231.200 121.820,231.200 121.600 C 231.200 121.380,230.480 121.200,229.600 121.200 C 228.720 121.200,228.000 121.020,228.000 120.800 C 228.000 120.569,226.733 120.400,225.000 120.400 C 223.267 120.400,222.000 120.231,222.000 120.000 C 222.000 119.298,149.920 119.494,149.300 120.198 M149.067 213.867 C 148.920 214.013,148.800 230.573,148.800 250.667 L 148.800 287.200 190.000 287.200 C 217.200 287.200,231.200 287.064,231.200 286.800 C 231.200 286.580,232.089 286.400,233.176 286.400 C 234.263 286.400,235.264 286.220,235.400 286.000 C 235.536 285.780,236.357 285.600,237.224 285.600 C 238.358 285.600,238.800 285.432,238.800 285.000 C 238.800 284.667,239.156 284.400,239.600 284.400 C 240.040 284.400,240.400 284.220,240.400 284.000 C 240.400 283.780,240.940 283.600,241.600 283.600 C 242.260 283.600,242.800 283.420,242.800 283.200 C 242.800 282.980,243.160 282.800,243.600 282.800 C 244.040 282.800,244.400 282.620,244.400 282.400 C 244.400 282.180,244.670 282.000,245.000 282.000 C 245.330 282.000,245.600 281.820,245.600 281.600 C 245.600 281.380,245.920 281.200,246.312 281.200 C 246.703 281.200,247.283 280.840,247.600 280.400 C 247.917 279.960,248.411 279.600,248.697 279.600 C 249.309 279.600,253.600 275.407,253.600 274.809 C 253.600 274.584,253.780 274.400,254.000 274.400 C 254.220 274.400,254.400 274.040,254.400 273.600 C 254.400 273.160,254.593 272.800,254.829 272.800 C 255.466 272.800,256.400 271.747,256.400 271.029 C 256.400 270.683,256.580 270.400,256.800 270.400 C 257.020 270.400,257.200 270.040,257.200 269.600 C 257.200 269.160,257.380 268.800,257.600 268.800 C 257.820 268.800,258.000 268.440,258.000 268.000 C 258.000 267.560,258.180 267.200,258.400 267.200 C 258.620 267.200,258.800 266.570,258.800 265.800 C 258.800 265.030,258.980 264.400,259.200 264.400 C 259.420 264.400,259.600 263.860,259.600 263.200 C 259.600 262.540,259.780 262.000,260.000 262.000 C 260.220 262.000,260.400 261.100,260.400 260.000 C 260.400 258.900,260.580 258.000,260.800 258.000 C 261.053 258.000,261.200 255.067,261.200 250.000 C 261.200 244.933,261.053 242.000,260.800 242.000 C 260.580 242.000,260.400 241.100,260.400 240.000 C 260.400 238.900,260.220 238.000,260.000 238.000 C 259.780 238.000,259.600 237.460,259.600 236.800 C 259.600 236.140,259.420 235.600,259.200 235.600 C 258.980 235.600,258.800 234.970,258.800 234.200 C 258.800 233.430,258.620 232.800,258.400 232.800 C 258.180 232.800,258.000 232.440,258.000 232.000 C 258.000 231.560,257.820 231.200,257.600 231.200 C 257.380 231.200,257.200 230.880,257.200 230.488 C 257.200 230.097,256.840 229.517,256.400 229.200 C 255.960 228.883,255.600 228.303,255.600 227.912 C 255.600 227.520,255.412 227.200,255.182 227.200 C 254.626 227.200,252.800 225.355,252.800 224.795 C 252.800 224.552,252.620 224.464,252.400 224.600 C 252.180 224.736,252.000 224.685,252.000 224.487 C 252.000 223.891,248.522 220.400,247.928 220.400 C 247.625 220.400,247.117 220.040,246.800 219.600 C 246.483 219.160,245.813 218.800,245.312 218.800 C 244.810 218.800,244.400 218.620,244.400 218.400 C 244.400 218.180,244.040 218.000,243.600 218.000 C 243.160 218.000,242.800 217.820,242.800 217.600 C 242.800 217.380,242.440 217.200,242.000 217.200 C 241.560 217.200,241.200 217.020,241.200 216.800 C 241.200 216.580,240.660 216.400,240.000 216.400 C 239.340 216.400,238.800 216.220,238.800 216.000 C 238.800 215.780,238.095 215.600,237.233 215.600 C 236.370 215.600,235.595 215.384,235.507 215.120 C 235.403 214.810,234.627 214.677,233.326 214.746 C 231.792 214.828,231.248 214.703,231.066 214.227 C 230.814 213.572,149.718 213.215,149.067 213.867 " stroke="none" fill="#2c2c2c" fill-rule="evenodd"></path><path id="path1" d="M232.105 214.687 C 232.714 214.779,233.614 214.777,234.105 214.682 C 234.597 214.587,234.100 214.511,233.000 214.514 C 231.900 214.517,231.497 214.595,232.105 214.687 " stroke="none" fill="#302c2c" fill-rule="evenodd"></path><path id="path2" d="M232.105 214.687 C 232.714 214.779,233.614 214.777,234.105 214.682 C 234.597 214.587,234.100 214.511,233.000 214.514 C 231.900 214.517,231.497 214.595,232.105 214.687 " stroke="none" fill="#302c2c" fill-rule="evenodd"></path><path id="path3" d="M232.105 214.687 C 232.714 214.779,233.614 214.777,234.105 214.682 C 234.597 214.587,234.100 214.511,233.000 214.514 C 231.900 214.517,231.497 214.595,232.105 214.687 " stroke="none" fill="#302c2c" fill-rule="evenodd"></path><path id="path4" d="M232.105 214.687 C 232.714 214.779,233.614 214.777,234.105 214.682 C 234.597 214.587,234.100 214.511,233.000 214.514 C 231.900 214.517,231.497 214.595,232.105 214.687 " stroke="none" fill="#302c2c" fill-rule="evenodd"></path></g></svg>